<?xml version="1.0" encoding="utf-8"?>
<!-- Generator: Adobe Illustrator 23.0.4, SVG Export Plug-In . SVG Version: 6.00 Build 0)  -->
<svg version="1.1" id="レイヤー_1" xmlns="http://www.w3.org/2000/svg" xmlns:xlink="http://www.w3.org/1999/xlink" x="0px"
	 y="0px" viewBox="0 0 207.9 127.7" style="enable-background:new 0 0 207.9 127.7;" xml:space="preserve">
<style type="text/css">
	.st0{fill:#0EA4CE;}
</style>
<path class="st0" d="M0.5,54.1c-0.4,0.5-0.5,1.1-0.4,1.7c5.9,30.8,27.9,56.1,57.6,66.1c0.2,0.1,0.4,0.2,0.6,0.2
	c8.8,2.9,18,4.4,27.3,4.4c1,0,2.1,0,3.5-0.1l0.2,0c0.1,0,0.2,0,0.4,0c1.4,0,2.8-0.1,4.1-0.3c6.7-0.6,13.4-2,19.8-4.2l0.1,0
	c0.8-0.3,1.7-0.6,2.5-0.9c2.8,3.1,6.4,5.3,10.5,6.3c1.8,0.3,3.5,0.5,5.3,0.5c2.8,0,5.7-0.4,8.5-1c2.7-0.6,4.3-1.8,4.9-3.7
	c1.1-3.5-2.4-7.3-4.7-9.9c-1.1-1.2-2.3-2.4-3.5-3.6c18.9-13.9,31.3-34.7,34.7-57.9c1.3,0.2,2.7,0.3,4,0.2c6,0.1,11.9-1.7,16.8-5.1
	c8.5-5.9,13.6-16.4,15.3-31.2c0.1-0.7-0.2-1.4-0.8-1.8c-0.9-0.7-2.1-0.5-2.8,0.3c-0.2,0.2-4.8,5.7-17.8,2.7
	c-10.7-2.4-17.7,2.9-21.4,7c-2-5.1-6.8-12.6-17.7-13.9c-13.3-1.6-15.7-8.4-15.8-8.7c-0.2-0.6-0.8-1.1-1.4-1.3
	c-1.1-0.3-2.2,0.4-2.4,1.5c-3.5,14.5-2.2,26.2,3.7,34.6c7.5,10.6,19.7,12,20.2,12.1c0.1,0,0.1,0,0.2,0c1,0,1.9-0.8,2-1.8
	c0.1-1.1-0.7-2.1-1.8-2.2c-0.1,0-11-1.3-17.4-10.4c-4.6-6.6-6-15.6-4-26.8c2.7,2.8,7.6,5.9,16.2,7c13.1,1.6,15.3,14.1,15.4,14.6
	l0.1,0.2c0,0.1,0.1,0.2,0.1,0.3c0,0.1,0.1,0.2,0.2,0.3c0.1,0.1,0.1,0.2,0.2,0.3c0.1,0.1,0.2,0.2,0.3,0.2l0.2,0.1
	c0.1,0,0.2,0.1,0.3,0.1c0.1,0.1,0.2,0.1,0.4,0.1c0.1,0,0.3,0,0.4,0c0.1,0,0.2,0,0.3,0l0.2,0c0.1,0,0.2-0.1,0.3-0.1
	c0.1,0,0.2-0.1,0.3-0.2c0.1-0.1,0.2-0.1,0.3-0.2c0.1-0.1,0.2-0.2,0.2-0.3l0.1-0.2c0.3-0.5,6.6-11.4,19.5-8.4
	c8.5,1.9,14.1,0.7,17.6-1c-2,11.2-6.4,19.2-13,23.8c-9.1,6.3-19.8,3.9-19.9,3.8c-1.1-0.3-2.2,0.4-2.4,1.5c-0.1,0.3-0.1,0.6,0,0.8
	c-2.9,23-15.2,43.7-34,57.2c-5.7-4.5-11.4-6.9-17-7.1c-0.5,0-1,0.2-1.4,0.5c-0.4,0.4-0.6,0.9-0.7,1.4c0,1.1,0.8,2,1.9,2.1
	c6.7,0.2,13.7,4.3,20.8,12.1c2.8,3.1,4.1,5.1,3.9,6c-0.1,0.2-0.5,0.6-1.9,0.9c-4,1-8.1,1.2-12.1,0.5c-7.9-1.6-12.8-10.8-14.6-14.7
	c-0.5-1-1.6-1.5-2.6-1c0,0,0,0,0,0c-1,0.4-1.5,1.6-1,2.6c1.2,2.6,2.6,5.1,4.2,7.5c-0.4,0.1-0.8,0.3-1.2,0.4
	c-13,4.1-19.9-6.7-27.8-19.3C78.3,89,71.3,78,60.2,72.8c-20.3-9.4-46-5.3-52.4-4c-1.4-3.7-2.5-7.5-3.4-11.4h142.6c1.1,0,2-0.9,2-2
	s-0.9-2-2-2H4.5l-2.5,0C1.4,53.4,0.9,53.6,0.5,54.1L0.5,54.1z M53.6,116.1C33.8,107.8,18,92.2,9.4,72.6c8-1.4,31.1-4.5,49.2,3.9
	c10,4.6,16.4,14.7,22.5,24.5c5.5,8.7,10.7,17,18.1,20.4c-3.4,0.6-6.8,0.9-10.3,1.1c-9.9-0.3-14.8-8.3-20.5-17.4
	C62.6,95.6,56,85.1,42.8,82.3c-1.1-0.2-2.1,0.5-2.4,1.5c0,0,0,0,0,0c-0.2,1.1,0.5,2.1,1.6,2.4C53.5,88.6,59.4,98,65,107.1
	c3.4,5.5,7,11.2,11.7,14.9c-5.7-0.6-11.4-1.8-16.9-3.6c-1.2-1.7-2.3-3.6-3.5-5.4c-5.8-9.3-12.4-19.9-25.7-22.7
	c-1.1-0.2-2.1,0.5-2.4,1.5c0,0,0,0,0,0c-0.2,1.1,0.5,2.1,1.6,2.4C41.5,96.6,47.4,106,53,115.1C53,115.1,53.6,116.1,53.6,116.1z"/>
<path class="st0" d="M63,69.4L63,69.4c2.1,0,3.9-1.7,3.9-3.9c0-2.1-1.7-3.9-3.9-3.9c-2.1,0-3.9,1.7-3.9,3.9
	C59.2,67.6,60.9,69.4,63,69.4z"/>
</svg>
